<mxfile host="65bd71144e">
    <diagram id="7ABmXiVf6YTN1FhZLi2m" name="第 1 页">
        <mxGraphModel dx="2355" dy="3354" grid="1" gridSize="10" guides="1" tooltips="1" connect="1" arrows="1" fold="1" page="1" pageScale="1" pageWidth="1169" pageHeight="1654" math="0" shadow="0">
            <root>
                <mxCell id="0"/>
                <mxCell id="1" parent="0"/>
                <mxCell id="2" value="&lt;div&gt;&lt;br&gt;&lt;/div&gt;&lt;div&gt;&lt;b&gt;Node&lt;/b&gt;&lt;/div&gt;" style="swimlane;fontStyle=0;align=center;verticalAlign=top;childLayout=stackLayout;horizontal=1;startSize=55;horizontalStack=0;resizeParent=1;resizeParentMax=0;resizeLast=0;collapsible=0;marginBottom=0;html=1;whiteSpace=wrap;arcSize=5;rounded=1;strokeWidth=2;fillColor=#F0F4FC;" vertex="1" parent="1">
                    <mxGeometry x="390" y="-490" width="220" height="143" as="geometry"/>
                </mxCell>
                <mxCell id="3" value="- name" style="text;html=1;strokeColor=none;fillColor=#E5F2FF;align=left;verticalAlign=middle;spacingLeft=4;spacingRight=4;overflow=hidden;rotatable=0;points=[[0,0.5],[1,0.5]];portConstraint=eastwest;whiteSpace=wrap;opacity=50;" vertex="1" parent="2">
                    <mxGeometry y="55" width="220" height="20" as="geometry"/>
                </mxCell>
                <mxCell id="93" value="- dbc_specifics" style="text;html=1;strokeColor=none;fillColor=#CCE5FF;align=left;verticalAlign=middle;spacingLeft=4;spacingRight=4;overflow=hidden;rotatable=0;points=[[0,0.5],[1,0.5]];portConstraint=eastwest;whiteSpace=wrap;opacity=50;" vertex="1" parent="2">
                    <mxGeometry y="75" width="220" height="20" as="geometry"/>
                </mxCell>
                <mxCell id="4" value="..." style="text;html=1;strokeColor=none;fillColor=light-dark(#E5F2FF,#1A2637);align=left;verticalAlign=middle;spacingLeft=4;spacingRight=4;overflow=hidden;rotatable=0;points=[[0,0.5],[1,0.5]];portConstraint=eastwest;whiteSpace=wrap;opacity=50;" vertex="1" parent="2">
                    <mxGeometry y="95" width="220" height="20" as="geometry"/>
                </mxCell>
                <mxCell id="5" value="" style="line;strokeWidth=1;fillColor=none;align=left;verticalAlign=middle;spacingTop=-1;spacingLeft=3;spacingRight=3;rotatable=0;labelPosition=right;points=[];portConstraint=eastwest;" vertex="1" parent="2">
                    <mxGeometry y="115" width="220" height="8" as="geometry"/>
                </mxCell>
                <mxCell id="6" value="..." style="text;html=1;strokeColor=none;fillColor=none;align=left;verticalAlign=middle;spacingLeft=4;spacingRight=4;overflow=hidden;rotatable=0;points=[[0,0.5],[1,0.5]];portConstraint=eastwest;whiteSpace=wrap;" vertex="1" parent="2">
                    <mxGeometry y="123" width="220" height="20" as="geometry"/>
                </mxCell>
                <mxCell id="7" value="&lt;div&gt;&lt;b&gt;&lt;br&gt;&lt;/b&gt;&lt;/div&gt;&lt;b&gt;Message&lt;/b&gt;" style="swimlane;fontStyle=0;align=center;verticalAlign=top;childLayout=stackLayout;horizontal=1;startSize=55;horizontalStack=0;resizeParent=1;resizeParentMax=0;resizeLast=0;collapsible=0;marginBottom=0;html=1;whiteSpace=wrap;rounded=1;arcSize=5;strokeWidth=2;fillColor=#F0F4FC;" vertex="1" parent="1">
                    <mxGeometry x="680" y="-490" width="220" height="223" as="geometry"/>
                </mxCell>
                <mxCell id="8" value="- frame_id" style="text;html=1;strokeColor=none;fillColor=#E5F2FF;align=left;verticalAlign=middle;spacingLeft=4;spacingRight=4;overflow=hidden;rotatable=0;points=[[0,0.5],[1,0.5]];portConstraint=eastwest;whiteSpace=wrap;opacity=50;" vertex="1" parent="7">
                    <mxGeometry y="55" width="220" height="20" as="geometry"/>
                </mxCell>
                <mxCell id="9" value="- name" style="text;html=1;strokeColor=none;fillColor=#C4DFFF;align=left;verticalAlign=middle;spacingLeft=4;spacingRight=4;overflow=hidden;rotatable=0;points=[[0,0.5],[1,0.5]];portConstraint=eastwest;whiteSpace=wrap;opacity=50;" vertex="1" parent="7">
                    <mxGeometry y="75" width="220" height="20" as="geometry"/>
                </mxCell>
                <mxCell id="10" value="- length" style="text;html=1;strokeColor=none;fillColor=#E5F2FF;align=left;verticalAlign=middle;spacingLeft=4;spacingRight=4;overflow=hidden;rotatable=0;points=[[0,0.5],[1,0.5]];portConstraint=eastwest;whiteSpace=wrap;opacity=50;" vertex="1" parent="7">
                    <mxGeometry y="95" width="220" height="20" as="geometry"/>
                </mxCell>
                <mxCell id="11" value="- senders" style="text;html=1;strokeColor=none;fillColor=#C4DFFF;align=left;verticalAlign=middle;spacingLeft=4;spacingRight=4;overflow=hidden;rotatable=0;points=[[0,0.5],[1,0.5]];portConstraint=eastwest;whiteSpace=wrap;opacity=50;" vertex="1" parent="7">
                    <mxGeometry y="115" width="220" height="20" as="geometry"/>
                </mxCell>
                <mxCell id="12" value="- signals" style="text;html=1;strokeColor=none;fillColor=#E5F2FF;align=left;verticalAlign=middle;spacingLeft=4;spacingRight=4;overflow=hidden;rotatable=0;points=[[0,0.5],[1,0.5]];portConstraint=eastwest;whiteSpace=wrap;opacity=50;" vertex="1" parent="7">
                    <mxGeometry y="135" width="220" height="20" as="geometry"/>
                </mxCell>
                <mxCell id="94" value="- dbc_specifics" style="text;html=1;strokeColor=none;fillColor=light-dark(#CCE5FF,#15202B);align=left;verticalAlign=middle;spacingLeft=4;spacingRight=4;overflow=hidden;rotatable=0;points=[[0,0.5],[1,0.5]];portConstraint=eastwest;whiteSpace=wrap;opacity=50;" vertex="1" parent="7">
                    <mxGeometry y="155" width="220" height="20" as="geometry"/>
                </mxCell>
                <mxCell id="13" value="..." style="text;html=1;strokeColor=none;fillColor=#E5F2FF;align=left;verticalAlign=middle;spacingLeft=4;spacingRight=4;overflow=hidden;rotatable=0;points=[[0,0.5],[1,0.5]];portConstraint=eastwest;whiteSpace=wrap;opacity=50;" vertex="1" parent="7">
                    <mxGeometry y="175" width="220" height="20" as="geometry"/>
                </mxCell>
                <mxCell id="14" value="" style="line;strokeWidth=1;fillColor=none;align=left;verticalAlign=middle;spacingTop=-1;spacingLeft=3;spacingRight=3;rotatable=0;labelPosition=right;points=[];portConstraint=eastwest;" vertex="1" parent="7">
                    <mxGeometry y="195" width="220" height="8" as="geometry"/>
                </mxCell>
                <mxCell id="15" value="..." style="text;html=1;strokeColor=none;fillColor=none;align=left;verticalAlign=middle;spacingLeft=4;spacingRight=4;overflow=hidden;rotatable=0;points=[[0,0.5],[1,0.5]];portConstraint=eastwest;whiteSpace=wrap;" vertex="1" parent="7">
                    <mxGeometry y="203" width="220" height="20" as="geometry"/>
                </mxCell>
                <mxCell id="16" value="&lt;div&gt;&lt;br&gt;&lt;/div&gt;&lt;b&gt;Signal&lt;/b&gt;" style="swimlane;fontStyle=0;align=center;verticalAlign=top;childLayout=stackLayout;horizontal=1;startSize=55;horizontalStack=0;resizeParent=1;resizeParentMax=0;resizeLast=0;collapsible=0;marginBottom=0;html=1;whiteSpace=wrap;arcSize=5;rounded=1;strokeWidth=2;fillColor=#F0F4FC;" vertex="1" parent="1">
                    <mxGeometry x="970" y="-490" width="220" height="363" as="geometry"/>
                </mxCell>
                <mxCell id="17" value="- name" style="text;html=1;strokeColor=none;fillColor=#DDEBFF;align=left;verticalAlign=middle;spacingLeft=4;spacingRight=4;overflow=hidden;rotatable=0;points=[[0,0.5],[1,0.5]];portConstraint=eastwest;whiteSpace=wrap;opacity=50;" vertex="1" parent="16">
                    <mxGeometry y="55" width="220" height="20" as="geometry"/>
                </mxCell>
                <mxCell id="18" value="- is_multiplexer" style="text;html=1;strokeColor=none;fillColor=#C4DFFF;align=left;verticalAlign=middle;spacingLeft=4;spacingRight=4;overflow=hidden;rotatable=0;points=[[0,0.5],[1,0.5]];portConstraint=eastwest;whiteSpace=wrap;opacity=50;" vertex="1" parent="16">
                    <mxGeometry y="75" width="220" height="20" as="geometry"/>
                </mxCell>
                <mxCell id="19" value="- multiplexer_ids" style="text;html=1;strokeColor=none;fillColor=#DDEBFF;align=left;verticalAlign=middle;spacingLeft=4;spacingRight=4;overflow=hidden;rotatable=0;points=[[0,0.5],[1,0.5]];portConstraint=eastwest;whiteSpace=wrap;opacity=50;" vertex="1" parent="16">
                    <mxGeometry y="95" width="220" height="20" as="geometry"/>
                </mxCell>
                <mxCell id="20" value="- start" style="text;html=1;strokeColor=none;fillColor=#C4DFFF;align=left;verticalAlign=middle;spacingLeft=4;spacingRight=4;overflow=hidden;rotatable=0;points=[[0,0.5],[1,0.5]];portConstraint=eastwest;whiteSpace=wrap;opacity=50;" vertex="1" parent="16">
                    <mxGeometry y="115" width="220" height="20" as="geometry"/>
                </mxCell>
                <mxCell id="21" value="- length" style="text;html=1;strokeColor=none;fillColor=#DDEBFF;align=left;verticalAlign=middle;spacingLeft=4;spacingRight=4;overflow=hidden;rotatable=0;points=[[0,0.5],[1,0.5]];portConstraint=eastwest;whiteSpace=wrap;opacity=50;" vertex="1" parent="16">
                    <mxGeometry y="135" width="220" height="20" as="geometry"/>
                </mxCell>
                <mxCell id="22" value="- byte_order" style="text;html=1;strokeColor=none;fillColor=#C4DFFF;align=left;verticalAlign=middle;spacingLeft=4;spacingRight=4;overflow=hidden;rotatable=0;points=[[0,0.5],[1,0.5]];portConstraint=eastwest;whiteSpace=wrap;opacity=50;" vertex="1" parent="16">
                    <mxGeometry y="155" width="220" height="20" as="geometry"/>
                </mxCell>
                <mxCell id="23" value="- is_signed" style="text;html=1;strokeColor=none;fillColor=#DDEBFF;align=left;verticalAlign=middle;spacingLeft=4;spacingRight=4;overflow=hidden;rotatable=0;points=[[0,0.5],[1,0.5]];portConstraint=eastwest;whiteSpace=wrap;opacity=50;" vertex="1" parent="16">
                    <mxGeometry y="175" width="220" height="20" as="geometry"/>
                </mxCell>
                <mxCell id="24" value="- conversion" style="text;html=1;strokeColor=none;fillColor=#C4DFFF;align=left;verticalAlign=middle;spacingLeft=4;spacingRight=4;overflow=hidden;rotatable=0;points=[[0,0.5],[1,0.5]];portConstraint=eastwest;whiteSpace=wrap;opacity=50;" vertex="1" parent="16">
                    <mxGeometry y="195" width="220" height="20" as="geometry"/>
                </mxCell>
                <mxCell id="25" value="- minimum" style="text;html=1;strokeColor=none;fillColor=#DDEBFF;align=left;verticalAlign=middle;spacingLeft=4;spacingRight=4;overflow=hidden;rotatable=0;points=[[0,0.5],[1,0.5]];portConstraint=eastwest;whiteSpace=wrap;opacity=50;" vertex="1" parent="16">
                    <mxGeometry y="215" width="220" height="20" as="geometry"/>
                </mxCell>
                <mxCell id="26" value="- maximum" style="text;html=1;strokeColor=none;fillColor=#C4DFFF;align=left;verticalAlign=middle;spacingLeft=4;spacingRight=4;overflow=hidden;rotatable=0;points=[[0,0.5],[1,0.5]];portConstraint=eastwest;whiteSpace=wrap;opacity=50;" vertex="1" parent="16">
                    <mxGeometry y="235" width="220" height="20" as="geometry"/>
                </mxCell>
                <mxCell id="27" value="- unit" style="text;html=1;strokeColor=none;fillColor=#DDEBFF;align=left;verticalAlign=middle;spacingLeft=4;spacingRight=4;overflow=hidden;rotatable=0;points=[[0,0.5],[1,0.5]];portConstraint=eastwest;whiteSpace=wrap;opacity=50;" vertex="1" parent="16">
                    <mxGeometry y="255" width="220" height="20" as="geometry"/>
                </mxCell>
                <mxCell id="28" value="- receivers" style="text;html=1;strokeColor=none;fillColor=#C4DFFF;align=left;verticalAlign=middle;spacingLeft=4;spacingRight=4;overflow=hidden;rotatable=0;points=[[0,0.5],[1,0.5]];portConstraint=eastwest;whiteSpace=wrap;opacity=50;" vertex="1" parent="16">
                    <mxGeometry y="275" width="220" height="20" as="geometry"/>
                </mxCell>
                <mxCell id="95" value="- dbc_specifics" style="text;html=1;strokeColor=none;fillColor=#E5F2FF;align=left;verticalAlign=middle;spacingLeft=4;spacingRight=4;overflow=hidden;rotatable=0;points=[[0,0.5],[1,0.5]];portConstraint=eastwest;whiteSpace=wrap;opacity=50;" vertex="1" parent="16">
                    <mxGeometry y="295" width="220" height="20" as="geometry"/>
                </mxCell>
                <mxCell id="29" value="..." style="text;html=1;strokeColor=none;fillColor=#CCE5FF;align=left;verticalAlign=middle;spacingLeft=4;spacingRight=4;overflow=hidden;rotatable=0;points=[[0,0.5],[1,0.5]];portConstraint=eastwest;whiteSpace=wrap;opacity=50;" vertex="1" parent="16">
                    <mxGeometry y="315" width="220" height="20" as="geometry"/>
                </mxCell>
                <mxCell id="30" value="" style="line;strokeWidth=1;fillColor=none;align=left;verticalAlign=middle;spacingTop=-1;spacingLeft=3;spacingRight=3;rotatable=0;labelPosition=right;points=[];portConstraint=eastwest;" vertex="1" parent="16">
                    <mxGeometry y="335" width="220" height="8" as="geometry"/>
                </mxCell>
                <mxCell id="31" value="..." style="text;html=1;strokeColor=none;fillColor=none;align=left;verticalAlign=middle;spacingLeft=4;spacingRight=4;overflow=hidden;rotatable=0;points=[[0,0.5],[1,0.5]];portConstraint=eastwest;whiteSpace=wrap;" vertex="1" parent="16">
                    <mxGeometry y="343" width="220" height="20" as="geometry"/>
                </mxCell>
                <mxCell id="32" value="&lt;div&gt;&lt;br&gt;&lt;/div&gt;Database" style="swimlane;fontStyle=1;align=center;verticalAlign=top;childLayout=stackLayout;horizontal=1;startSize=55;horizontalStack=0;resizeParent=1;resizeParentMax=0;resizeLast=0;collapsible=0;marginBottom=0;html=1;whiteSpace=wrap;arcSize=5;rounded=1;strokeWidth=2;fillColor=#F0F4FC;" vertex="1" parent="1">
                    <mxGeometry x="90" y="-490" width="220" height="183" as="geometry"/>
                </mxCell>
                <mxCell id="33" value="- version" style="text;html=1;strokeColor=none;fillColor=#E5F2FF;align=left;verticalAlign=middle;spacingLeft=4;spacingRight=4;overflow=hidden;rotatable=0;points=[[0,0.5],[1,0.5]];portConstraint=eastwest;whiteSpace=wrap;opacity=50;" vertex="1" parent="32">
                    <mxGeometry y="55" width="220" height="20" as="geometry"/>
                </mxCell>
                <mxCell id="34" value="- nodes" style="text;html=1;strokeColor=none;fillColor=#C4DFFF;align=left;verticalAlign=middle;spacingLeft=4;spacingRight=4;overflow=hidden;rotatable=0;points=[[0,0.5],[1,0.5]];portConstraint=eastwest;whiteSpace=wrap;opacity=50;" vertex="1" parent="32">
                    <mxGeometry y="75" width="220" height="20" as="geometry"/>
                </mxCell>
                <mxCell id="35" value="- messages" style="text;html=1;strokeColor=none;fillColor=#E5F2FF;align=left;verticalAlign=middle;spacingLeft=4;spacingRight=4;overflow=hidden;rotatable=0;points=[[0,0.5],[1,0.5]];portConstraint=eastwest;whiteSpace=wrap;opacity=50;" vertex="1" parent="32">
                    <mxGeometry y="95" width="220" height="20" as="geometry"/>
                </mxCell>
                <mxCell id="92" value="- dbc_specifics" style="text;html=1;strokeColor=none;fillColor=#CCE5FF;align=left;verticalAlign=middle;spacingLeft=4;spacingRight=4;overflow=hidden;rotatable=0;points=[[0,0.5],[1,0.5]];portConstraint=eastwest;whiteSpace=wrap;opacity=50;" vertex="1" parent="32">
                    <mxGeometry y="115" width="220" height="20" as="geometry"/>
                </mxCell>
                <mxCell id="36" value="..." style="text;html=1;strokeColor=none;fillColor=#E5F2FF;align=left;verticalAlign=middle;spacingLeft=4;spacingRight=4;overflow=hidden;rotatable=0;points=[[0,0.5],[1,0.5]];portConstraint=eastwest;whiteSpace=wrap;opacity=50;" vertex="1" parent="32">
                    <mxGeometry y="135" width="220" height="20" as="geometry"/>
                </mxCell>
                <mxCell id="37" value="" style="line;strokeWidth=1;fillColor=none;align=left;verticalAlign=middle;spacingTop=-1;spacingLeft=3;spacingRight=3;rotatable=0;labelPosition=right;points=[];portConstraint=eastwest;" vertex="1" parent="32">
                    <mxGeometry y="155" width="220" height="8" as="geometry"/>
                </mxCell>
                <mxCell id="38" value="..." style="text;html=1;strokeColor=none;fillColor=none;align=left;verticalAlign=middle;spacingLeft=4;spacingRight=4;overflow=hidden;rotatable=0;points=[[0,0.5],[1,0.5]];portConstraint=eastwest;whiteSpace=wrap;" vertex="1" parent="32">
                    <mxGeometry y="163" width="220" height="20" as="geometry"/>
                </mxCell>
                <mxCell id="39" value="&lt;div&gt;&lt;br&gt;&lt;/div&gt;&lt;div&gt;AttributeDefinition&lt;/div&gt;" style="swimlane;fontStyle=1;align=center;verticalAlign=top;childLayout=stackLayout;horizontal=1;startSize=55;horizontalStack=0;resizeParent=1;resizeParentMax=0;resizeLast=0;collapsible=0;marginBottom=0;html=1;whiteSpace=wrap;arcSize=5;rounded=1;strokeWidth=2;fillColor=#F0F4FC;" vertex="1" parent="1">
                    <mxGeometry x="410" y="240" width="220" height="243" as="geometry"/>
                </mxCell>
                <mxCell id="40" value="+ name" style="text;html=1;strokeColor=none;fillColor=#E5F2FF;align=left;verticalAlign=middle;spacingLeft=4;spacingRight=4;overflow=hidden;rotatable=0;points=[[0,0.5],[1,0.5]];portConstraint=eastwest;whiteSpace=wrap;opacity=50;" vertex="1" parent="39">
                    <mxGeometry y="55" width="220" height="20" as="geometry"/>
                </mxCell>
                <mxCell id="41" value="+ default_value" style="text;html=1;strokeColor=none;fillColor=#C4DFFF;align=left;verticalAlign=middle;spacingLeft=4;spacingRight=4;overflow=hidden;rotatable=0;points=[[0,0.5],[1,0.5]];portConstraint=eastwest;whiteSpace=wrap;opacity=50;" vertex="1" parent="39">
                    <mxGeometry y="75" width="220" height="20" as="geometry"/>
                </mxCell>
                <mxCell id="42" value="+ kind" style="text;html=1;strokeColor=none;fillColor=#E5F2FF;align=left;verticalAlign=middle;spacingLeft=4;spacingRight=4;overflow=hidden;rotatable=0;points=[[0,0.5],[1,0.5]];portConstraint=eastwest;whiteSpace=wrap;opacity=50;" vertex="1" parent="39">
                    <mxGeometry y="95" width="220" height="20" as="geometry"/>
                </mxCell>
                <mxCell id="53" value="+ type_name" style="text;html=1;strokeColor=none;fillColor=#C4DFFF;align=left;verticalAlign=middle;spacingLeft=4;spacingRight=4;overflow=hidden;rotatable=0;points=[[0,0.5],[1,0.5]];portConstraint=eastwest;whiteSpace=wrap;opacity=50;" vertex="1" parent="39">
                    <mxGeometry y="115" width="220" height="20" as="geometry"/>
                </mxCell>
                <mxCell id="54" value="+ minimum" style="text;html=1;strokeColor=none;fillColor=#E5F2FF;align=left;verticalAlign=middle;spacingLeft=4;spacingRight=4;overflow=hidden;rotatable=0;points=[[0,0.5],[1,0.5]];portConstraint=eastwest;whiteSpace=wrap;opacity=50;" vertex="1" parent="39">
                    <mxGeometry y="135" width="220" height="20" as="geometry"/>
                </mxCell>
                <mxCell id="55" value="+ maximum" style="text;html=1;strokeColor=none;fillColor=#C4DFFF;align=left;verticalAlign=middle;spacingLeft=4;spacingRight=4;overflow=hidden;rotatable=0;points=[[0,0.5],[1,0.5]];portConstraint=eastwest;whiteSpace=wrap;opacity=50;" vertex="1" parent="39">
                    <mxGeometry y="155" width="220" height="20" as="geometry"/>
                </mxCell>
                <mxCell id="56" value="+ choices" style="text;html=1;strokeColor=none;fillColor=#E5F2FF;align=left;verticalAlign=middle;spacingLeft=4;spacingRight=4;overflow=hidden;rotatable=0;points=[[0,0.5],[1,0.5]];portConstraint=eastwest;whiteSpace=wrap;opacity=50;" vertex="1" parent="39">
                    <mxGeometry y="175" width="220" height="20" as="geometry"/>
                </mxCell>
                <mxCell id="43" value="..." style="text;html=1;strokeColor=none;fillColor=#C4DFFF;align=left;verticalAlign=middle;spacingLeft=4;spacingRight=4;overflow=hidden;rotatable=0;points=[[0,0.5],[1,0.5]];portConstraint=eastwest;whiteSpace=wrap;opacity=50;" vertex="1" parent="39">
                    <mxGeometry y="195" width="220" height="20" as="geometry"/>
                </mxCell>
                <mxCell id="44" value="" style="line;strokeWidth=1;fillColor=none;align=left;verticalAlign=middle;spacingTop=-1;spacingLeft=3;spacingRight=3;rotatable=0;labelPosition=right;points=[];portConstraint=eastwest;" vertex="1" parent="39">
                    <mxGeometry y="215" width="220" height="8" as="geometry"/>
                </mxCell>
                <mxCell id="45" value="..." style="text;html=1;strokeColor=none;fillColor=none;align=left;verticalAlign=middle;spacingLeft=4;spacingRight=4;overflow=hidden;rotatable=0;points=[[0,0.5],[1,0.5]];portConstraint=eastwest;whiteSpace=wrap;" vertex="1" parent="39">
                    <mxGeometry y="223" width="220" height="20" as="geometry"/>
                </mxCell>
                <mxCell id="46" value="&lt;div&gt;&lt;br&gt;&lt;/div&gt;&lt;div&gt;Attribute&lt;/div&gt;" style="swimlane;fontStyle=1;align=center;verticalAlign=top;childLayout=stackLayout;horizontal=1;startSize=55;horizontalStack=0;resizeParent=1;resizeParentMax=0;resizeLast=0;collapsible=0;marginBottom=0;html=1;whiteSpace=wrap;arcSize=5;rounded=1;strokeWidth=2;fillColor=#F0F4FC;" vertex="1" parent="1">
                    <mxGeometry x="410" y="510" width="220" height="163" as="geometry"/>
                </mxCell>
                <mxCell id="47" value="- name" style="text;html=1;strokeColor=none;fillColor=#E5F2FF;align=left;verticalAlign=middle;spacingLeft=4;spacingRight=4;overflow=hidden;rotatable=0;points=[[0,0.5],[1,0.5]];portConstraint=eastwest;whiteSpace=wrap;opacity=50;" vertex="1" parent="46">
                    <mxGeometry y="55" width="220" height="20" as="geometry"/>
                </mxCell>
                <mxCell id="48" value="- value" style="text;html=1;strokeColor=none;fillColor=#C4DFFF;align=left;verticalAlign=middle;spacingLeft=4;spacingRight=4;overflow=hidden;rotatable=0;points=[[0,0.5],[1,0.5]];portConstraint=eastwest;whiteSpace=wrap;opacity=50;" vertex="1" parent="46">
                    <mxGeometry y="75" width="220" height="20" as="geometry"/>
                </mxCell>
                <mxCell id="49" value="- definition" style="text;html=1;strokeColor=none;fillColor=#E5F2FF;align=left;verticalAlign=middle;spacingLeft=4;spacingRight=4;overflow=hidden;rotatable=0;points=[[0,0.5],[1,0.5]];portConstraint=eastwest;whiteSpace=wrap;opacity=50;" vertex="1" parent="46">
                    <mxGeometry y="95" width="220" height="20" as="geometry"/>
                </mxCell>
                <mxCell id="50" value="..." style="text;html=1;strokeColor=none;fillColor=#C4DFFF;align=left;verticalAlign=middle;spacingLeft=4;spacingRight=4;overflow=hidden;rotatable=0;points=[[0,0.5],[1,0.5]];portConstraint=eastwest;whiteSpace=wrap;opacity=50;" vertex="1" parent="46">
                    <mxGeometry y="115" width="220" height="20" as="geometry"/>
                </mxCell>
                <mxCell id="51" value="" style="line;strokeWidth=1;fillColor=none;align=left;verticalAlign=middle;spacingTop=-1;spacingLeft=3;spacingRight=3;rotatable=0;labelPosition=right;points=[];portConstraint=eastwest;" vertex="1" parent="46">
                    <mxGeometry y="135" width="220" height="8" as="geometry"/>
                </mxCell>
                <mxCell id="52" value="..." style="text;html=1;strokeColor=none;fillColor=none;align=left;verticalAlign=middle;spacingLeft=4;spacingRight=4;overflow=hidden;rotatable=0;points=[[0,0.5],[1,0.5]];portConstraint=eastwest;whiteSpace=wrap;" vertex="1" parent="46">
                    <mxGeometry y="143" width="220" height="20" as="geometry"/>
                </mxCell>
                <mxCell id="57" value="" style="rounded=0;whiteSpace=wrap;html=1;fillColor=#E6E6E6;strokeColor=none;" vertex="1" parent="1">
                    <mxGeometry x="-380" y="240" width="560" height="450" as="geometry"/>
                </mxCell>
                <mxCell id="58" value="&lt;div style=&quot;font-family: &amp;quot;Courier New&amp;quot;;&quot;&gt;&lt;span style=&quot;color: rgb(63, 63, 63); background-color: transparent;&quot;&gt;BA_DEF_&amp;nbsp; &quot;DBName&quot; STRING ;&lt;/span&gt;&lt;/div&gt;&lt;div style=&quot;&quot;&gt;&lt;span style=&quot;background-color: transparent; color: rgb(63, 63, 63);&quot;&gt;&lt;font face=&quot;Courier New&quot;&gt;BA_DEF_&amp;nbsp; &quot;BusType&quot; STRING ;&lt;/font&gt;&lt;/span&gt;&lt;/div&gt;&lt;div style=&quot;font-family: &amp;quot;Courier New&amp;quot;;&quot;&gt;&lt;span style=&quot;color: rgb(63, 63, 63); background-color: transparent;&quot;&gt;BA_DEF_ BU_&amp;nbsp; &quot;XXX&quot; STRING ;&lt;/span&gt;&lt;/div&gt;&lt;div style=&quot;&quot;&gt;&lt;font face=&quot;Courier New&quot;&gt;BA_DEF_ BO_&amp;nbsp; &quot;XXXX&quot; ENUM &quot;No&quot;,&quot;Yes&quot;;&lt;/font&gt;&lt;/div&gt;&lt;div style=&quot;&quot;&gt;&lt;font face=&quot;Courier New&quot;&gt;BA_DEF_ SG_&amp;nbsp; &quot;XXXXX&quot; INT 0 0;&lt;/font&gt;&lt;/div&gt;&lt;div style=&quot;&quot;&gt;&lt;font face=&quot;Courier New&quot;&gt;&lt;br&gt;&lt;/font&gt;&lt;/div&gt;&lt;div style=&quot;&quot;&gt;&lt;font face=&quot;Courier New&quot;&gt;BA_DEF_DEF_&amp;nbsp; &quot;BusType&quot; &quot;CAN&quot;;&lt;/font&gt;&lt;/div&gt;&lt;div style=&quot;&quot;&gt;&lt;font face=&quot;Courier New&quot;&gt;BA_DEF_DEF_&amp;nbsp; &quot;DBName&quot; &quot;&quot;;&lt;/font&gt;&lt;/div&gt;&lt;div style=&quot;&quot;&gt;&lt;span style=&quot;color: rgb(63, 63, 63); font-family: &amp;quot;Courier New&amp;quot;;&quot;&gt;BA_DEF_DEF&amp;nbsp; &quot;XXX&quot; &quot;&quot; ;&lt;/span&gt;&lt;/div&gt;&lt;div style=&quot;&quot;&gt;&lt;span style=&quot;color: rgb(63, 63, 63); font-family: &amp;quot;Courier New&amp;quot;;&quot;&gt;&lt;span style=&quot;color: rgb(63, 63, 63);&quot;&gt;BA_DEF_DEF&amp;nbsp; &quot;XXXX&quot; &quot;No&quot;;&lt;/span&gt;&lt;/span&gt;&lt;/div&gt;&lt;div style=&quot;&quot;&gt;&lt;span style=&quot;color: rgb(63, 63, 63); font-family: &amp;quot;Courier New&amp;quot;;&quot;&gt;&lt;span style=&quot;color: rgb(63, 63, 63);&quot;&gt;BA_DEF_DEF_ &quot;XXXXX&quot; 0;&lt;/span&gt;&lt;span style=&quot;color: rgb(63, 63, 63);&quot;&gt;&lt;/span&gt;&lt;/span&gt;&lt;/div&gt;&lt;div style=&quot;&quot;&gt;&lt;span style=&quot;color: rgb(63, 63, 63); font-family: &amp;quot;Courier New&amp;quot;;&quot;&gt;&lt;br&gt;&lt;/span&gt;&lt;/div&gt;&lt;div style=&quot;&quot;&gt;&lt;span style=&quot;color: rgb(63, 63, 63);&quot;&gt;&lt;div style=&quot;color: light-dark(rgb(63, 63, 63), rgb(183, 183, 183)); font-family: &amp;quot;Courier New&amp;quot;;&quot;&gt;BA_ &quot;DBName&quot; &quot;XXXXXXX&quot;;&lt;/div&gt;&lt;div style=&quot;color: light-dark(rgb(63, 63, 63), rgb(183, 183, 183)); font-family: &amp;quot;Courier New&amp;quot;;&quot;&gt;BA_ &quot;BusType&quot; &quot;CAN&quot;;&lt;/div&gt;&lt;div style=&quot;&quot;&gt;&lt;div style=&quot;&quot;&gt;&lt;font face=&quot;Courier New&quot;&gt;BA_ &quot;XXXXX&quot; SG_ 0&amp;nbsp;&lt;/font&gt;&lt;span style=&quot;color: rgb(63, 63, 63); font-family: &amp;quot;Courier New&amp;quot;;&quot;&gt;sig_example_1&amp;nbsp;&lt;/span&gt;&lt;font face=&quot;Courier New&quot;&gt;1;&lt;/font&gt;&lt;/div&gt;&lt;div style=&quot;&quot;&gt;&lt;font face=&quot;Courier New&quot;&gt;BA_ &quot;XXXXX&quot; SG_ 0&amp;nbsp;&lt;/font&gt;&lt;span style=&quot;color: rgb(63, 63, 63); font-family: &amp;quot;Courier New&amp;quot;;&quot;&gt;sig_example_2&lt;/span&gt;&lt;font face=&quot;Courier New&quot;&gt;&amp;nbsp;1;&lt;/font&gt;&lt;/div&gt;&lt;div style=&quot;&quot;&gt;&lt;font face=&quot;Courier New&quot;&gt;BA_ &quot;XXXX&quot; BO_ 0 &quot;Yes&quot;;&lt;/font&gt;&lt;/div&gt;&lt;/div&gt;&lt;/span&gt;&lt;/div&gt;" style="text;html=1;align=left;verticalAlign=middle;whiteSpace=wrap;rounded=1;fillColor=#CCCCCC;arcSize=2;" vertex="1" parent="1">
                    <mxGeometry x="-360" y="273" width="520" height="337" as="geometry"/>
                </mxCell>
                <mxCell id="59" value="" style="curved=1;endArrow=classic;html=1;exitX=0.192;exitY=0.11;exitDx=0;exitDy=0;exitPerimeter=0;entryX=0;entryY=0.25;entryDx=0;entryDy=0;strokeColor=#0066CC;flowAnimation=0;sketch=1;curveFitting=1;jiggle=2;" edge="1" parent="1" source="58" target="39">
                    <mxGeometry width="50" height="50" relative="1" as="geometry">
                        <mxPoint x="-150" y="170" as="sourcePoint"/>
                        <mxPoint x="-100" y="120" as="targetPoint"/>
                        <Array as="points">
                            <mxPoint x="-110" y="200"/>
                            <mxPoint x="270" y="190"/>
                        </Array>
                    </mxGeometry>
                </mxCell>
                <mxCell id="60" value="" style="curved=1;endArrow=classic;html=1;exitX=0.192;exitY=0.11;exitDx=0;exitDy=0;exitPerimeter=0;strokeColor=#003366;flowAnimation=1;" edge="1" parent="1">
                    <mxGeometry width="50" height="50" relative="1" as="geometry">
                        <mxPoint x="-290" y="340" as="sourcePoint"/>
                        <mxPoint x="410" y="340" as="targetPoint"/>
                        <Array as="points">
                            <mxPoint x="-140" y="230"/>
                            <mxPoint x="240" y="220"/>
                        </Array>
                    </mxGeometry>
                </mxCell>
                <mxCell id="61" value="" style="curved=1;endArrow=classic;html=1;exitX=0.192;exitY=0.11;exitDx=0;exitDy=0;exitPerimeter=0;entryX=0;entryY=0.5;entryDx=0;entryDy=0;strokeColor=#003366;flowAnimation=1;" edge="1" parent="1" target="41">
                    <mxGeometry width="50" height="50" relative="1" as="geometry">
                        <mxPoint x="-170" y="400" as="sourcePoint"/>
                        <mxPoint x="530" y="400" as="targetPoint"/>
                        <Array as="points">
                            <mxPoint x="-20" y="290"/>
                            <mxPoint x="300" y="270"/>
                        </Array>
                    </mxGeometry>
                </mxCell>
                <mxCell id="62" value="" style="curved=1;endArrow=classic;html=1;exitX=0.192;exitY=0.11;exitDx=0;exitDy=0;exitPerimeter=0;entryX=0;entryY=0.5;entryDx=0;entryDy=0;strokeColor=#0066CC;flowAnimation=0;sketch=1;curveFitting=1;jiggle=2;" edge="1" parent="1" target="39">
                    <mxGeometry width="50" height="50" relative="1" as="geometry">
                        <mxPoint x="-180" y="340" as="sourcePoint"/>
                        <mxPoint x="400" y="265" as="targetPoint"/>
                        <Array as="points">
                            <mxPoint x="-40" y="270"/>
                            <mxPoint x="280" y="270"/>
                        </Array>
                    </mxGeometry>
                </mxCell>
                <mxCell id="63" value="" style="curved=1;endArrow=classic;html=1;exitX=0.192;exitY=0.11;exitDx=0;exitDy=0;exitPerimeter=0;strokeColor=#003366;flowAnimation=1;" edge="1" parent="1">
                    <mxGeometry width="50" height="50" relative="1" as="geometry">
                        <mxPoint x="-180" y="370" as="sourcePoint"/>
                        <mxPoint x="410" y="390" as="targetPoint"/>
                        <Array as="points">
                            <mxPoint x="-40" y="290"/>
                            <mxPoint x="260" y="290"/>
                        </Array>
                    </mxGeometry>
                </mxCell>
                <mxCell id="64" value="" style="curved=1;endArrow=classic;html=1;exitX=0.192;exitY=0.11;exitDx=0;exitDy=0;exitPerimeter=0;entryX=0;entryY=0.5;entryDx=0;entryDy=0;strokeColor=#0066CC;flowAnimation=0;sketch=1;curveFitting=1;jiggle=2;" edge="1" parent="1" target="55">
                    <mxGeometry width="50" height="50" relative="1" as="geometry">
                        <mxPoint x="-160" y="373" as="sourcePoint"/>
                        <mxPoint x="430" y="393" as="targetPoint"/>
                        <Array as="points">
                            <mxPoint x="-20" y="293"/>
                            <mxPoint x="280" y="293"/>
                        </Array>
                    </mxGeometry>
                </mxCell>
                <mxCell id="65" value="" style="curved=1;endArrow=classic;html=1;exitX=0.192;exitY=0.11;exitDx=0;exitDy=0;exitPerimeter=0;entryX=0;entryY=0.5;entryDx=0;entryDy=0;strokeColor=#0066CC;flowAnimation=0;sketch=1;curveFitting=1;jiggle=2;" edge="1" parent="1" target="56">
                    <mxGeometry width="50" height="50" relative="1" as="geometry">
                        <mxPoint x="-110" y="370" as="sourcePoint"/>
                        <mxPoint x="460" y="402" as="targetPoint"/>
                        <Array as="points">
                            <mxPoint x="20" y="320"/>
                            <mxPoint x="300" y="350"/>
                        </Array>
                    </mxGeometry>
                </mxCell>
                <mxCell id="66" value="" style="curved=1;endArrow=classic;html=1;exitX=0.192;exitY=0.11;exitDx=0;exitDy=0;exitPerimeter=0;strokeColor=#0066CC;flowAnimation=0;" edge="1" parent="1">
                    <mxGeometry width="50" height="50" relative="1" as="geometry">
                        <mxPoint x="-300" y="501.5" as="sourcePoint"/>
                        <mxPoint x="410" y="580" as="targetPoint"/>
                        <Array as="points">
                            <mxPoint x="-150" y="391.5"/>
                            <mxPoint x="230" y="381.5"/>
                        </Array>
                    </mxGeometry>
                </mxCell>
                <mxCell id="78" value="" style="curved=1;endArrow=classic;html=1;exitX=0.192;exitY=0.11;exitDx=0;exitDy=0;exitPerimeter=0;strokeColor=#0066CC;flowAnimation=0;entryX=0;entryY=0.5;entryDx=0;entryDy=0;" edge="1" parent="1" target="48">
                    <mxGeometry width="50" height="50" relative="1" as="geometry">
                        <mxPoint x="-125" y="520" as="sourcePoint"/>
                        <mxPoint x="585" y="598.5" as="targetPoint"/>
                        <Array as="points">
                            <mxPoint x="-30" y="490"/>
                            <mxPoint x="290" y="520"/>
                        </Array>
                    </mxGeometry>
                </mxCell>
                <mxCell id="80" value="" style="endArrow=none;startArrow=diamondThin;endFill=0;startFill=0;html=1;verticalAlign=bottom;labelBackgroundColor=none;strokeWidth=2;startSize=8;endSize=8;entryX=1.005;entryY=0.099;entryDx=0;entryDy=0;entryPerimeter=0;" edge="1" parent="1" target="39">
                    <mxGeometry width="160" relative="1" as="geometry">
                        <mxPoint x="630" y="620" as="sourcePoint"/>
                        <mxPoint x="790" y="620" as="targetPoint"/>
                        <Array as="points">
                            <mxPoint x="720" y="620"/>
                            <mxPoint x="720" y="264"/>
                        </Array>
                    </mxGeometry>
                </mxCell>
                <mxCell id="81" value="&lt;div&gt;&lt;br&gt;&lt;/div&gt;DbcSpecifics" style="swimlane;fontStyle=1;align=center;verticalAlign=top;childLayout=stackLayout;horizontal=1;startSize=55;horizontalStack=0;resizeParent=1;resizeParentMax=0;resizeLast=0;collapsible=0;marginBottom=0;html=1;whiteSpace=wrap;arcSize=5;rounded=1;strokeWidth=2;fillColor=#F0F4FC;" vertex="1" parent="1">
                    <mxGeometry x="420" y="-90" width="220" height="183" as="geometry"/>
                </mxCell>
                <mxCell id="82" value="+ attributes" style="text;html=1;strokeColor=none;fillColor=#E5F2FF;align=left;verticalAlign=middle;spacingLeft=4;spacingRight=4;overflow=hidden;rotatable=0;points=[[0,0.5],[1,0.5]];portConstraint=eastwest;whiteSpace=wrap;opacity=50;" vertex="1" parent="81">
                    <mxGeometry y="55" width="220" height="20" as="geometry"/>
                </mxCell>
                <mxCell id="83" value="+ attribute_definitions" style="text;html=1;strokeColor=none;fillColor=#C4DFFF;align=left;verticalAlign=middle;spacingLeft=4;spacingRight=4;overflow=hidden;rotatable=0;points=[[0,0.5],[1,0.5]];portConstraint=eastwest;whiteSpace=wrap;opacity=50;" vertex="1" parent="81">
                    <mxGeometry y="75" width="220" height="20" as="geometry"/>
                </mxCell>
                <mxCell id="84" value="+ environment_variables" style="text;html=1;strokeColor=none;fillColor=#E5F2FF;align=left;verticalAlign=middle;spacingLeft=4;spacingRight=4;overflow=hidden;rotatable=0;points=[[0,0.5],[1,0.5]];portConstraint=eastwest;whiteSpace=wrap;opacity=50;" vertex="1" parent="81">
                    <mxGeometry y="95" width="220" height="20" as="geometry"/>
                </mxCell>
                <mxCell id="85" value="+ value_tables" style="text;html=1;strokeColor=none;fillColor=#C4DFFF;align=left;verticalAlign=middle;spacingLeft=4;spacingRight=4;overflow=hidden;rotatable=0;points=[[0,0.5],[1,0.5]];portConstraint=eastwest;whiteSpace=wrap;opacity=50;" vertex="1" parent="81">
                    <mxGeometry y="115" width="220" height="20" as="geometry"/>
                </mxCell>
                <mxCell id="89" value="..." style="text;html=1;strokeColor=none;fillColor=#E5F2FF;align=left;verticalAlign=middle;spacingLeft=4;spacingRight=4;overflow=hidden;rotatable=0;points=[[0,0.5],[1,0.5]];portConstraint=eastwest;whiteSpace=wrap;opacity=50;" vertex="1" parent="81">
                    <mxGeometry y="135" width="220" height="20" as="geometry"/>
                </mxCell>
                <mxCell id="90" value="" style="line;strokeWidth=1;fillColor=none;align=left;verticalAlign=middle;spacingTop=-1;spacingLeft=3;spacingRight=3;rotatable=0;labelPosition=right;points=[];portConstraint=eastwest;" vertex="1" parent="81">
                    <mxGeometry y="155" width="220" height="8" as="geometry"/>
                </mxCell>
                <mxCell id="91" value="..." style="text;html=1;strokeColor=none;fillColor=none;align=left;verticalAlign=middle;spacingLeft=4;spacingRight=4;overflow=hidden;rotatable=0;points=[[0,0.5],[1,0.5]];portConstraint=eastwest;whiteSpace=wrap;" vertex="1" parent="81">
                    <mxGeometry y="163" width="220" height="20" as="geometry"/>
                </mxCell>
                <mxCell id="96" value="" style="endArrow=none;startArrow=diamondThin;endFill=0;startFill=0;html=1;verticalAlign=bottom;labelBackgroundColor=none;strokeWidth=2;startSize=8;endSize=8;entryX=0.5;entryY=0;entryDx=0;entryDy=0;exitX=0;exitY=0.5;exitDx=0;exitDy=0;" edge="1" parent="1" source="92" target="81">
                    <mxGeometry width="160" relative="1" as="geometry">
                        <mxPoint x="180" y="116" as="sourcePoint"/>
                        <mxPoint x="181" y="-240" as="targetPoint"/>
                        <Array as="points">
                            <mxPoint x="40" y="-365"/>
                            <mxPoint x="40" y="-170"/>
                            <mxPoint x="530" y="-170"/>
                        </Array>
                    </mxGeometry>
                </mxCell>
                <mxCell id="97" value="" style="endArrow=none;startArrow=diamondThin;endFill=0;startFill=0;html=1;verticalAlign=bottom;labelBackgroundColor=none;strokeWidth=2;startSize=8;endSize=8;entryX=0.5;entryY=0;entryDx=0;entryDy=0;exitX=0;exitY=0.5;exitDx=0;exitDy=0;" edge="1" parent="1" source="93">
                    <mxGeometry width="160" relative="1" as="geometry">
                        <mxPoint x="90" y="-365" as="sourcePoint"/>
                        <mxPoint x="530" y="-90" as="targetPoint"/>
                        <Array as="points">
                            <mxPoint x="360" y="-405"/>
                            <mxPoint x="360" y="-170"/>
                            <mxPoint x="530" y="-170"/>
                        </Array>
                    </mxGeometry>
                </mxCell>
                <mxCell id="98" value="" style="endArrow=none;startArrow=diamondThin;endFill=0;startFill=0;html=1;verticalAlign=bottom;labelBackgroundColor=none;strokeWidth=2;startSize=8;endSize=8;entryX=0.5;entryY=0;entryDx=0;entryDy=0;exitX=0;exitY=0.5;exitDx=0;exitDy=0;" edge="1" parent="1" source="94">
                    <mxGeometry width="160" relative="1" as="geometry">
                        <mxPoint x="90" y="-365" as="sourcePoint"/>
                        <mxPoint x="530" y="-90" as="targetPoint"/>
                        <Array as="points">
                            <mxPoint x="650" y="-325"/>
                            <mxPoint x="650" y="-170"/>
                            <mxPoint x="530" y="-170"/>
                        </Array>
                    </mxGeometry>
                </mxCell>
                <mxCell id="99" value="" style="endArrow=none;startArrow=diamondThin;endFill=0;startFill=0;html=1;verticalAlign=bottom;labelBackgroundColor=none;strokeWidth=2;startSize=8;endSize=8;entryX=0.5;entryY=0;entryDx=0;entryDy=0;exitX=0;exitY=0.5;exitDx=0;exitDy=0;" edge="1" parent="1" source="95">
                    <mxGeometry width="160" relative="1" as="geometry">
                        <mxPoint x="680" y="-325" as="sourcePoint"/>
                        <mxPoint x="530" y="-90" as="targetPoint"/>
                        <Array as="points">
                            <mxPoint x="650" y="-185"/>
                            <mxPoint x="650" y="-170"/>
                            <mxPoint x="530" y="-170"/>
                        </Array>
                    </mxGeometry>
                </mxCell>
                <mxCell id="100" value="" style="endArrow=none;startArrow=diamondThin;endFill=0;startFill=0;html=1;verticalAlign=bottom;labelBackgroundColor=none;strokeWidth=2;startSize=8;endSize=8;entryX=0.5;entryY=0;entryDx=0;entryDy=0;exitX=1;exitY=0.5;exitDx=0;exitDy=0;" edge="1" parent="1" source="82" target="46">
                    <mxGeometry width="160" relative="1" as="geometry">
                        <mxPoint x="1270" y="-10" as="sourcePoint"/>
                        <mxPoint x="830" y="85" as="targetPoint"/>
                        <Array as="points">
                            <mxPoint x="800" y="-25"/>
                            <mxPoint x="800" y="490"/>
                            <mxPoint x="520" y="490"/>
                        </Array>
                    </mxGeometry>
                </mxCell>
                <mxCell id="101" value="" style="endArrow=none;startArrow=diamondThin;endFill=0;startFill=0;html=1;verticalAlign=bottom;labelBackgroundColor=none;strokeWidth=2;startSize=8;endSize=8;exitX=1;exitY=0.5;exitDx=0;exitDy=0;" edge="1" parent="1" source="83">
                    <mxGeometry width="160" relative="1" as="geometry">
                        <mxPoint x="640" as="sourcePoint"/>
                        <mxPoint x="520" y="240" as="targetPoint"/>
                        <Array as="points">
                            <mxPoint x="700" y="-5"/>
                            <mxPoint x="700" y="195"/>
                            <mxPoint x="520" y="195"/>
                        </Array>
                    </mxGeometry>
                </mxCell>
            </root>
        </mxGraphModel>
    </diagram>
</mxfile>